<svg xmlns="http://www.w3.org/2000/svg" viewBox="0 0 449.84 287.82"><title>logo</title><path d="M287.74,283.65c-6.52.36-13.05.74-19.57.73-2.8,0-5.64-.85-5.86-5.53-.23-4.86,2.18-7.5,5.45-7.87,7.33-.85,14.69-1.44,22-2,3.34-.23,6.53,1.19,6.5,6.42,0,5-3,6.87-6.44,7.46-.71.13-1.41.33-2.11.5Z" transform="translate(-25.08 -7.19)" style="fill:#facc15"/><path d="M81.26,269.31c-13.85-4.37-23-15.3-31.87-26.1-7.51-10.08-11.85-22.43-10.74-35.06.38-4.3,1.92-8.32,6.7-8.59,5.29-.29,8.5,3.73,10.52,8.87,2.09,5.31,3.73,10.86,6,16.26,3.69,8.71,8.64,16.79,17,21.15,6.26,3.25,11.27,2.32,14-2.39,3.14-5.37,1.18-11.3-2.22-16.19a120.2,120.2,0,0,0-13-15.23c-4.45-4.55-9.62-8.13-13.9-12.66-9.59-10.7-12.55-29,.52-38.71,11.91-9,28.59-1.26,30.61,13.47a18.19,18.19,0,0,1-1.23,9.06c-1.92,4.33-5.55,4.2-8.53.43C84,182.18,83.31,180,82,179.23c-2.08-1.15-5.85-2.6-6.54-1.67a11.83,11.83,0,0,0-1.89,8.23c.37,2.15,2.87,4.39,4.82,5.92,4.21,3.29,8.86,5.88,13,9.4,5.51,4.69,11.21,9.45,15.93,15.36,8.72,10.7,12.45,25.23,7.61,38.44C110.45,269.86,94.6,273.24,81.26,269.31Z" transform="translate(-25.08 -7.19)" style="fill:#facc15"/><path d="M185.61,214.38a5.67,5.67,0,0,1-2.71.59c-2.21-.12-3.72-1.92-4.53-5.38a17.48,17.48,0,0,1-.43-2.28,13.84,13.84,0,0,1-.09-1.62,6.5,6.5,0,0,1,3.71-6.14,94.41,94.41,0,0,1,14.84-5.66,51.47,51.47,0,0,1,15.23-2,25.62,25.62,0,0,1,7.09,1.14,16.17,16.17,0,0,1,6.26,3.6,18.54,18.54,0,0,1,4.48,6.72,27.46,27.46,0,0,1,1.71,10.48,26.68,26.68,0,0,1-1.37,8.49,37.76,37.76,0,0,1-3.6,7.7,49.26,49.26,0,0,1-5.1,6.89,66.55,66.55,0,0,1-5.86,5.89q-3,2.66-5.93,4.77c-2,1.41-3.8,2.6-5.31,3.63a4,4,0,0,0-2,3.09,3.58,3.58,0,0,0,2.15,3.15q7.42,3.91,15.23,7.28T235.17,272a6.2,6.2,0,0,1,3.76,5.82,9.45,9.45,0,0,1-.81,3.74,24.67,24.67,0,0,1-1.79,3.44c-1.35,2.62-3,3.91-5,3.85a8.08,8.08,0,0,1-2.59-.63q-4.55-2.48-9.74-5.2c-3.46-1.82-7-3.66-10.59-5.5s-7.14-3.64-10.62-5.39-6.69-3.36-9.65-4.82a9.3,9.3,0,0,0-2.15-.73,1.12,1.12,0,0,0-.88.24,1.86,1.86,0,0,0-.32,1.29,3.81,3.81,0,0,0,.07.68,6.15,6.15,0,0,1,.06.87c.13.92.3,2.13.5,3.62s.39,3.05.59,4.64.36,3.1.49,4.53.2,2.61.19,3.51c0,3.39-1.46,5.6-4.3,6.61l-3.15.9a9,9,0,0,1-1.25.26,5.28,5.28,0,0,1-1.19,0c-2.55-.32-4-2.55-4.41-6.66-1-10.86-2.35-21.83-4-32.6s-3.51-21.36-5.66-31.94a9.7,9.7,0,0,1-.23-1.58c0-.44,0-.84,0-1.2,0-3.13,1.36-5.16,4-6.12,1-.35,1.76-.63,2.39-.83l1.53-.48a7.82,7.82,0,0,1,.9-.26,2,2,0,0,1,.59-.06c2.49.15,4.08,2.07,4.8,5.76.92,4.73,1.81,9.33,2.63,13.77s1.54,8.86,2.23,13.16c.34,2.12,1,3.24,2,3.32a2.49,2.49,0,0,0,1-.16,8.49,8.49,0,0,0,1.32-.58q2.23-1.36,5.41-3.44c2.11-1.37,4.33-2.93,6.63-4.66s4.58-3.59,6.84-5.56a69,69,0,0,0,6.07-6,34.64,34.64,0,0,0,4.36-6,11.62,11.62,0,0,0,1.69-5.66,11.36,11.36,0,0,0-.37-3.06,5.45,5.45,0,0,0-1.41-2.43,7.1,7.1,0,0,0-2.8-1.63,15.46,15.46,0,0,0-4.47-.68,27.16,27.16,0,0,0-5.51.43,42.92,42.92,0,0,0-5.72,1.39q-2.85.9-5.63,2.05T185.61,214.38Z" transform="translate(-25.08 -7.19)" style="fill:#facc15"/><path d="M246.61,219.71a3.79,3.79,0,0,0-.58.08c-.26.06-.54.11-.85.16l-.88.16a4.34,4.34,0,0,1-.67.08,3.64,3.64,0,0,1-3-1.93,9,9,0,0,1-1.27-5.09,8.47,8.47,0,0,1,1-4,8.3,8.3,0,0,1,3.23-3.24,3.6,3.6,0,0,0,1.06-.93,2.41,2.41,0,0,0,.4-1.5c0-1.73,0-3.59-.09-5.57s-.11-4.33-.27-6.95a4.43,4.43,0,0,0-.39-1.55c-.22-.48-.47-1-.73-1.66a16.35,16.35,0,0,1-.69-2.08,10.51,10.51,0,0,1-.3-2.84,22,22,0,0,1,.33-3.54,10.3,10.3,0,0,1,1.4-3.73,8.86,8.86,0,0,1,3-2.93,9.52,9.52,0,0,1,5-1.18,5.86,5.86,0,0,1,2.12.33,6.24,6.24,0,0,1,1.48.77c.43.3.81.55,1.16.77a2,2,0,0,0,1.06.32,29.55,29.55,0,0,0,3.87-.5q2.91-.5,7-1.41c2.72-.61,5.73-1.3,9-2.08s6.63-1.63,10-2.54,6.68-1.84,9.91-2.78,6.13-1.85,8.75-2.72a6.54,6.54,0,0,1,2.11-.42,2.72,2.72,0,0,1,2,.74,4.51,4.51,0,0,1,1.13,1.85,10.28,10.28,0,0,1,.47,2.5c.07.93.1,1.79.11,2.58a7.59,7.59,0,0,1-1,3.88A7.32,7.32,0,0,1,308,175.6c-4,1.61-8,3-12.06,4.26s-8.14,2.33-12.26,3.33-8.25,1.89-12.41,2.69l-12.43,2.36a1.85,1.85,0,0,0-1.28.85,3.54,3.54,0,0,0-.42,1.83v3.34c0,.92,0,1.87.07,2.84a20.73,20.73,0,0,0,.27,2.68,7.92,7.92,0,0,0,.58,2,1.11,1.11,0,0,0,1,.77,20,20,0,0,0,4.53-.85q3.06-.83,6.92-2.06t8.07-2.7c2.81-1,5.46-1.9,8-2.73s4.7-1.53,6.6-2.11a17.9,17.9,0,0,1,4-.9,2.74,2.74,0,0,1,2.58,1.59,11.36,11.36,0,0,1,1.21,4.09,3.14,3.14,0,0,0,.07.72,3.88,3.88,0,0,1,.06.72,9,9,0,0,1-1,4.32,6.77,6.77,0,0,1-3.78,3c-.48.23-1.45.6-2.91,1.1l-5.15,1.75-6.44,2.14c-2.3.75-4.57,1.49-6.8,2.2s-4.31,1.4-6.23,2-3.52,1.16-4.71,1.56a6.68,6.68,0,0,0-2,.91,1.11,1.11,0,0,0-.33.82,5.81,5.81,0,0,0,1.37,3.32,14.56,14.56,0,0,0,3.17,2.8,26.68,26.68,0,0,0,4.33,2.28,33.62,33.62,0,0,0,5,1.64,48.74,48.74,0,0,0,5.09,1,28,28,0,0,0,4.63.26l2.62-.08c1.14,0,2.39-.13,3.74-.26s2.76-.31,4.2-.54a28.43,28.43,0,0,0,3.9-.85,10.83,10.83,0,0,0,2.85-1.25,2,2,0,0,0,1.11-1.7,4.26,4.26,0,0,0-.46-1.82,4.54,4.54,0,0,1-.47-2.05,8.06,8.06,0,0,1,.65-3.19,11.54,11.54,0,0,1,1.71-2.88,9.63,9.63,0,0,1,2.42-2.1,5.86,5.86,0,0,1,2.76-.87,5.74,5.74,0,0,1,3.22.76,8.4,8.4,0,0,1,2.54,2.26,10.44,10.44,0,0,1,1.66,3.28,12.74,12.74,0,0,1,.61,3.84,15.1,15.1,0,0,1-2.88,9.22,25.33,25.33,0,0,1-7.66,6.8,41.29,41.29,0,0,1-10.7,4.35,58.64,58.64,0,0,1-24.94.93,32.59,32.59,0,0,1-10.5-3.83,27,27,0,0,1-8-7.13,37.1,37.1,0,0,1-5.49-10.76C247.71,220.34,247.18,219.71,246.61,219.71Z" transform="translate(-25.08 -7.19)" style="fill:#facc15"/><path d="M328.44,257.24a4,4,0,0,0-.68.16l-1,.29c-.36.09-.71.19-1,.29a4.36,4.36,0,0,1-.79.16,3.87,3.87,0,0,1-3.55-1.86,9.54,9.54,0,0,1-1.56-5.71,10.25,10.25,0,0,1,1.19-4.78,10.84,10.84,0,0,1,3.79-4,4.88,4.88,0,0,0,1.25-1.17,2.89,2.89,0,0,0,.45-1.76q0-3-.15-6.37c-.09-2.26-.18-4.95-.39-7.93a4.56,4.56,0,0,0-.48-1.74c-.27-.54-.56-1.16-.88-1.85a16.87,16.87,0,0,1-.84-2.32,12.18,12.18,0,0,1-.39-3.25,23.41,23.41,0,0,1,.37-4.07,12.41,12.41,0,0,1,1.61-4.38,11,11,0,0,1,3.49-3.53,11.94,11.94,0,0,1,5.91-1.65,7.08,7.08,0,0,1,2.51.23,7.3,7.3,0,0,1,1.76.77c.51.31,1,.57,1.37.79a2.29,2.29,0,0,0,1.26.29,35.62,35.62,0,0,0,4.58-.83q3.43-.76,8.25-2.09t10.64-3c3.87-1.1,7.81-2.29,11.79-3.54s7.88-2.52,11.68-3.79,7.23-2.45,10.31-3.59a9.53,9.53,0,0,1,2.49-.61,3.32,3.32,0,0,1,2.39.61,4.38,4.38,0,0,1,1.34,1.84,9.26,9.26,0,0,1,.55,2.57c.09,1,.13,1.85.14,2.68a7.68,7.68,0,0,1-1.21,4.15,9.52,9.52,0,0,1-4.06,3.39q-7,3.18-14.17,5.79t-14.42,4.85q-7.26,2.27-14.63,4.18t-14.66,3.79a2.41,2.41,0,0,0-1.5,1.08,4,4,0,0,0-.48,2.11c0,1.5,0,2.25,0,3.76,0,1,0,2.11.1,3.2a21.34,21.34,0,0,0,.35,3,8.21,8.21,0,0,0,.7,2.18,1.19,1.19,0,0,0,1.16.76,26.35,26.35,0,0,0,5.34-1.45c2.4-.86,5.12-1.88,8.14-3.08s6.19-2.51,9.49-3.93,6.43-2.72,9.37-3.92,5.53-2.23,7.76-3.08a24.31,24.31,0,0,1,4.69-1.45,2.94,2.94,0,0,1,3.05,1.36,10.38,10.38,0,0,1,1.43,4.2,4,4,0,0,0,.08.75,3.48,3.48,0,0,1,.08.76,9.57,9.57,0,0,1-1.2,4.74,9.27,9.27,0,0,1-4.42,3.81c-.56.31-1.7.85-3.4,1.59l-6.05,2.64c-2.32,1-4.84,2.1-7.55,3.24l-8,3.37q-3.93,1.65-7.32,3.12c-2.26,1-4.14,1.76-5.54,2.37a8.94,8.94,0,0,0-2.33,1.29,1.33,1.33,0,0,0-.38,1,5.67,5.67,0,0,0,1.65,3.53,13.91,13.91,0,0,0,3.76,2.68,26.48,26.48,0,0,0,5.12,1.9,36.23,36.23,0,0,0,5.89,1,55.25,55.25,0,0,0,6,.22,33.69,33.69,0,0,0,5.44-.5l3.07-.55c1.33-.24,2.79-.56,4.38-.94s3.23-.83,4.91-1.33A40.94,40.94,0,0,0,391,258a16.38,16.38,0,0,0,3.33-1.87,2.65,2.65,0,0,0,1.3-2,3.68,3.68,0,0,0-.56-1.84,4.16,4.16,0,0,1-.55-2.1,8.56,8.56,0,0,1,.75-3.5,14.06,14.06,0,0,1,2-3.33,13.26,13.26,0,0,1,2.82-2.63,8.46,8.46,0,0,1,3.22-1.39,7.18,7.18,0,0,1,3.77.24,8,8,0,0,1,3,1.89,8.74,8.74,0,0,1,1.94,3.09,10.84,10.84,0,0,1,.71,3.86,16.81,16.81,0,0,1-3.34,10.14,37.92,37.92,0,0,1-8.89,8.74A62,62,0,0,1,388,274.18a75.3,75.3,0,0,1-14,4.34A67.86,67.86,0,0,1,358.8,280a34.42,34.42,0,0,1-12.39-2.49,25.72,25.72,0,0,1-9.5-6.82,36.09,36.09,0,0,1-6.58-11.5C329.74,257.82,329.11,257.17,328.44,257.24Z" transform="translate(-25.08 -7.19)" style="fill:#facc15"/><path d="M129.71,195.63a16.88,16.88,0,0,0-2.56.18l-4.41.54c-1.67.21-3.44.46-5.28.75s-3.58.52-5.2.71-3,.35-4.23.47a14.21,14.21,0,0,1-2.39.13q-5.6-.54-5.52-7.43a22.24,22.24,0,0,1,.33-3.66,10.93,10.93,0,0,1,1.07-3.27,7.69,7.69,0,0,1,2-2.48,6.53,6.53,0,0,1,3.19-1.29q9.81-1.2,19.54-2.82T146,173.85c1.45-.31,2.77-.6,4-.89s2.5-.71,3.95-1.21,3.28-1,5.13-1.53,3.72-.94,5.59-1.33,3.7-.72,5.47-1a30.28,30.28,0,0,1,4.82-.35,4.55,4.55,0,0,1,4.06,2.31,12.18,12.18,0,0,1,1.33,6.34,30,30,0,0,1-.28,4,12.4,12.4,0,0,1-.95,3.43,6.53,6.53,0,0,1-1.86,2.46,6,6,0,0,1-3,1.1c-3.11.35-6.62,1.05-10.26,1.72a78.13,78.13,0,0,0-9.52,2.3,4.53,4.53,0,0,0-2.53,2,9,9,0,0,0-1.13,3.5,39.15,39.15,0,0,0-.33,4.08c0,1.39-.07,2.71-.08,4q0,4.47.21,9c.16,3,.33,6,.46,9,.42,10.16,1.07,20.49,2,30.64,1,10.31,2,20.66,3.14,31a3.93,3.93,0,0,1,.15,1.1v1.08c0,3.93-1.8,6.45-5.3,7.48-1.53.34-2.29.5-3.81.82a7,7,0,0,1-2.95.09,5.31,5.31,0,0,1-3.52-2.4,12.3,12.3,0,0,1-1.71-5.44c-1.38-12.18-2.74-24.44-3.76-36.55-1-11.94-1.44-24.11-1.9-36.08-.07-1.93-.15-4.07-.18-6.37s0-4.65,0-7.08Q133.15,195.89,129.71,195.63Z" transform="translate(-25.08 -7.19)" style="fill:#facc15"/><path d="M411.52,174.9a18.51,18.51,0,0,0-2.54.49c-1.25.29-2.72.65-4.38,1.08s-3.42.9-5.26,1.43-3.56,1-5.17,1.45L390,180.44a15,15,0,0,1-2.38.49q-5.61.33-5.68-6.78a25.54,25.54,0,0,1,.25-3.82,12.61,12.61,0,0,1,1-3.49,8.82,8.82,0,0,1,2-2.74,7,7,0,0,1,3.16-1.6q9.78-2.06,19.47-4.21c6.46-1.43,13-2.89,19.55-4.34,1.45-.33,2.75-.64,3.92-.93s2.49-.7,3.93-1.18,3.26-1,5.1-1.44,3.69-.87,5.56-1.23,3.69-.65,5.44-.88a37.56,37.56,0,0,1,4.82-.35,4.89,4.89,0,0,1,4.06,1.73,7.41,7.41,0,0,1,1.38,4.81,17.89,17.89,0,0,1-.25,3.06,8.24,8.24,0,0,1-.91,2.68,6,6,0,0,1-1.84,2,7.44,7.44,0,0,1-3,1.08c-3.1.51-6.56,1.33-10.17,2.19a82.14,82.14,0,0,0-9.42,2.77,5,5,0,0,0-2.49,1.91,7.53,7.53,0,0,0-1.06,3.12,29.8,29.8,0,0,0-.27,3.54c0,1.19,0,2.33,0,3.43,0,2.56.13,5.1.34,7.64s.42,5.08.59,7.6c.6,8.65,1.38,17.22,2.45,25.53S437.72,237.68,439,246a2.27,2.27,0,0,1,.17.86v.89q0,4.93-5,8.49l-3.69,2.35a10.71,10.71,0,0,1-2.88,1.37,3.49,3.49,0,0,1-3.47-.58,6.58,6.58,0,0,1-1.77-4.07c-1.66-10.42-3.08-20.94-4.33-31.39-1.28-10.64-2-21.74-2.53-32.28-.09-1.73-.23-3.69-.3-5.78s-.12-4.25-.14-6.47Q414.94,174.7,411.52,174.9Z" transform="translate(-25.08 -7.19)" style="fill:#facc15"/><path d="M474.92,127.48c-.06,6.64-5.9,13.4-12.56,13.28-5.7-.1-10.78-6.85-10.84-13.19s6.54-12.31,13.43-12.14C470.73,115.57,475,120.71,474.92,127.48Z" transform="translate(-25.08 -7.19)" style="fill:#facc15"/><path d="M48.43,128.49c-.11,6-5.11,11.1-10.66,10.89-6.9-.25-12.77-5.86-12.69-12.1.08-5.74,5.66-10.5,12.3-10.48C43.46,116.81,48.54,122.19,48.43,128.49Z" transform="translate(-25.08 -7.19)" style="fill:#facc15"/><path d="M81,60.24a15.25,15.25,0,0,0-3.44,1.42c-1.31.7-2.66,1.46-4.07,2.29s-2.79,1.6-4.17,2.31a17.93,17.93,0,0,1-3.71,1.48,4.69,4.69,0,0,1-2.68.1,2.54,2.54,0,0,1-1.44-1.18,4.35,4.35,0,0,1-.55-1.92c0-.73-.08-1.44-.08-2.14a9.25,9.25,0,0,1,1.75-5.49,21.66,21.66,0,0,1,5-4.86,62.17,62.17,0,0,1,7.89-4.81q4.62-2.4,10.48-5.38,9.21-4.68,16.88-7.89t14.67-5.48q7-2.27,13.77-3.87t14.28-3.08a6.68,6.68,0,0,1,3.52.05,3.58,3.58,0,0,1,1.9,1.5,5.79,5.79,0,0,1,.75,2.45c.09,1,.14,1.9.15,2.86a19,19,0,0,1-.32,3.61,13.81,13.81,0,0,1-1.16,3.69,9.09,9.09,0,0,1-2.21,3,6.36,6.36,0,0,1-3.38,1.57c-2.56.42-3.84.63-6.39,1.08s-5.26.94-8.13,1.51-5.7,1.18-8.5,1.84-5.49,1.35-8,2.09-4.83,1.49-6.8,2.27a26.83,26.83,0,0,0-4.68,2.3c-1.16.76-1.73,1.5-1.72,2.23a14,14,0,0,0,.75,3.52c.49,1.62,1.08,3.36,1.79,5.23s1.42,3.73,2.16,5.55,1.33,3.4,1.83,4.6a3.85,3.85,0,0,0,1.45,1.94,3.44,3.44,0,0,0,2.15.25,53.88,53.88,0,0,0,6.66-1.44c2.27-.63,4.56-1.32,6.86-2s4.61-1.42,6.91-2A48.81,48.81,0,0,1,138,67.94a5.08,5.08,0,0,1,3.17.47,5.55,5.55,0,0,1,2,1.9,8,8,0,0,1,1,2.58,12.51,12.51,0,0,1,.31,2.41q.06,4.58-2.16,7.06a15,15,0,0,1-6,3.91,48.52,48.52,0,0,1-8.87,2.3q-5.06.87-10.69,2.09l-1.91.38a2.92,2.92,0,0,0-1.58,1,2.72,2.72,0,0,0-.54,1.76,1.06,1.06,0,0,0,.09.47,1.19,1.19,0,0,1,.08.46q.75,3.06,1.75,6.85c.66,2.52,1.29,5.05,1.87,7.57s1.08,4.92,1.48,7.21a36.93,36.93,0,0,1,.62,5.65c0,3-.86,5.21-2.68,6.75s-4.4,2.29-7.75,2.29a7.16,7.16,0,0,1-3.56-1,4.6,4.6,0,0,1-2.15-3.54q-1.35-7.53-3-14.63T95.94,98c-.49-1.58-1.43-2.29-2.8-2.14-1.58.17-3.37.31-5.35.42s-4,.1-6.06,0a59.2,59.2,0,0,1-6-.58,19.76,19.76,0,0,1-5.14-1.44A10.36,10.36,0,0,1,67,91.62a5.9,5.9,0,0,1-1.39-4,8,8,0,0,1,.7-3.18A14.15,14.15,0,0,1,70.49,79,6.1,6.1,0,0,1,73,77.7a6.62,6.62,0,0,1,3.07.16c1.1.29,2.29.63,3.55,1a34.13,34.13,0,0,0,4.07,1,13.48,13.48,0,0,0,4.7,0c.84-.13,1.25-.71,1.25-1.71a20.3,20.3,0,0,0-.47-3.65c-.3-1.48-.69-3-1.18-4.61s-1-3.11-1.65-4.59a18.17,18.17,0,0,0-2-3.64A5.23,5.23,0,0,0,83,60.34,2.65,2.65,0,0,0,81,60.24Z" transform="translate(-25.08 -7.19)" style="fill:#facc15"/><path d="M150.65,101.4c-.91,0-1.59-.5-2.06-1.63a13.78,13.78,0,0,1-.73-4.87V93.73c0-.44.07-1.35.13-2.62.22-4.79,2-7.93,5.57-9l1.84-.35A5.15,5.15,0,0,0,158.25,80a8.13,8.13,0,0,0,1.49-3.51q1.29-6,2.59-12.25t2.76-12.35c.51-2.3,1-4.77,1.57-7.4s1.13-5.25,1.77-7.86,1.4-5.22,2.26-7.81a53.65,53.65,0,0,1,2.95-7.19,17.49,17.49,0,0,1,2-2.93,20,20,0,0,1,2.92-2.9,18,18,0,0,1,3.53-2.28,11.4,11.4,0,0,1,3.74-1.17,6.38,6.38,0,0,1,4.78,1.5,40.54,40.54,0,0,1,6.28,6.43,102.5,102.5,0,0,1,6.93,10q3.84,6.18,8.89,15.1t12.1,21.81A8.48,8.48,0,0,0,227,69.63a4.67,4.67,0,0,0,2.78.77l4.59-.08a5.43,5.43,0,0,1,4.39,1.78,7.52,7.52,0,0,1,1.57,5.05c0,.44,0,1,0,1.55a7.76,7.76,0,0,1-.28,1.78c-.6,2.5-.91,3.75-1.51,6.24-.11.6-.19,1.11-.24,1.56a11.87,11.87,0,0,0-.08,1.33,11.31,11.31,0,0,0,1.13,4.77c3.45,6.47,5.16,9.72,8.59,16.22a13.14,13.14,0,0,1,1.44,5.67,9.25,9.25,0,0,1-3.27,7l-3,3a11.83,11.83,0,0,1-2.11,1.56,4.13,4.13,0,0,1-2,.56,3.83,3.83,0,0,1-2.67-1.17,12.74,12.74,0,0,1-2.36-3.16q-3.85-7.54-7.76-14.82t-8-14.39c-1.24-2.33-2.93-3.52-4.91-3.42-6.35.32-13,1.19-19.34,2s-12.79,1.85-19.16,3c-2.28.39-3.72,2.07-4.27,5-1.37,7-2.06,10.54-3.43,17.51-.91,4.64-3,7-6.31,7h-1.28l-2.48-.4a5.7,5.7,0,0,1-4.13-2.12,7.78,7.78,0,0,1-1.45-4.81,12.68,12.68,0,0,1,.06-1.34c0-.48.13-1,.23-1.55.25-1.38.51-2.79.79-4.24s.57-2.87.87-4.26c.1-.55.17-1,.22-1.5a11.65,11.65,0,0,0,.07-1.29c0-2.13-.68-3.17-1.95-3.11Zm37.6-58.55a19.12,19.12,0,0,0-1.46-1.49,1.73,1.73,0,0,0-1.38-.52c-1.34.12-2.27,1.47-2.78,4q-1.56,6.49-3,12.76t-2.9,12.78a3.77,3.77,0,0,0-.15,1v1c0,2.63,1.08,3.88,3.16,3.75l.8,0q4.8-1.16,9.62-1.91c3.21-.5,6.53-.84,9.63-1.3a4.36,4.36,0,0,0,2.52-1.26,3.46,3.46,0,0,0,.91-2.51,7.83,7.83,0,0,0-1-3.34q-3.4-6-6.88-11.65C193.08,50.27,190.7,46.52,188.25,42.85Z" transform="translate(-25.08 -7.19)" style="fill:#facc15"/><path d="M321.78,20.37a14.48,14.48,0,0,1-2.13,7.56,35.8,35.8,0,0,1-5.21,6.53,85.52,85.52,0,0,1-6.78,6.09,80.54,80.54,0,0,0-6.78,6.13,36.94,36.94,0,0,0-5.2,6.56,14.05,14.05,0,0,0-2.1,7.34c0,2.19,1.11,4.37,3.34,6.51a43.88,43.88,0,0,0,9.68,6.59q6.33,3.36,15.27,7c6,2.45,12.88,5,20.11,7.85,3.67,1.46,5.55,4.13,5.51,7.69a10.87,10.87,0,0,1-.8,4,11.46,11.46,0,0,1-2.08,3.36,10.36,10.36,0,0,1-2.94,2.32,6.55,6.55,0,0,1-3.32.81,31.23,31.23,0,0,1-9.06-1.89,112.33,112.33,0,0,1-10.48-4.3Q313.4,98,308,94.94t-10.18-5.62c-3.17-1.7-6-3.14-8.4-4.31a15.44,15.44,0,0,0-5.49-1.8A3.51,3.51,0,0,0,281.12,85a18.38,18.38,0,0,0-2.43,5,48.1,48.1,0,0,0-1.83,7.55c-.5,2.91-.84,6.11-1.08,9.56-.27,3.9-1.29,6.8-3,8.67a9.27,9.27,0,0,1-7.16,2.8c-3.15,0-4.94-2.08-5.43-6.13-.75-6.2-1.76-12.57-2.9-19S254.86,80.45,253.5,74s-2.84-12.84-4.43-19.14-3.24-12.34-5-18.11a22.76,22.76,0,0,1-.94-3.5,18.7,18.7,0,0,1-.28-3.28,6,6,0,0,1,.64-2.73A7.79,7.79,0,0,1,245.3,25a8.31,8.31,0,0,1,2.63-1.58,8.92,8.92,0,0,1,3.12-.56,7.22,7.22,0,0,1,5.27,1.93,23.76,23.76,0,0,1,4,5.72,26.19,26.19,0,0,1,1.85,4.76q.89,3,1.69,6.31c.53,2.23,1.07,4.48,1.6,6.75s1.05,4.31,1.56,6.14a34.67,34.67,0,0,0,1.52,4.47c.51,1.15,1,1.74,1.49,1.75a1.26,1.26,0,0,0,1.09-.75,22.29,22.29,0,0,0,1.09-2.31,167.77,167.77,0,0,1,9.28-21.52A100.22,100.22,0,0,1,291.8,19.82,43.2,43.2,0,0,1,302.43,10c3.55-2.19,6.94-3.07,10.17-2.67a8.36,8.36,0,0,1,3.63,1.37,11.22,11.22,0,0,1,2.92,2.91,14.67,14.67,0,0,1,1.94,4.06A15.74,15.74,0,0,1,321.78,20.37Z" transform="translate(-25.08 -7.19)" style="fill:#facc15"/><path d="M345.49,96.36a4.17,4.17,0,0,0-.76.06l-1.12.14-1.16.15a4.22,4.22,0,0,1-.88.05,5,5,0,0,1-3.89-2.65,11.82,11.82,0,0,1-1.61-6.65,10.35,10.35,0,0,1,1.41-5.14,9.68,9.68,0,0,1,4.28-3.85,4.55,4.55,0,0,0,1.42-1.08,2.91,2.91,0,0,0,.54-1.87c0-2.21,0-4.58-.05-7.11s-.09-5.55-.26-8.91a5.93,5.93,0,0,0-.5-2c-.29-.65-.6-1.4-.94-2.24a21.33,21.33,0,0,1-.89-2.76,14.12,14.12,0,0,1-.36-3.69,24.82,24.82,0,0,1,.49-4.47,11.44,11.44,0,0,1,1.89-4.53,9.16,9.16,0,0,1,4-3.15,11.78,11.78,0,0,1,6.61-.42,8.81,8.81,0,0,1,2.79.88,10.67,10.67,0,0,1,1.95,1.3c.55.46,1.05.87,1.5,1.22a3.1,3.1,0,0,0,1.4.64,43.88,43.88,0,0,0,5.1.32c2.56.07,5.63.1,9.21.11s7.53,0,11.84.15,8.67.22,13.09.37,8.72.34,12.9.58,8,.48,11.32.69a10.41,10.41,0,0,1,2.72.49,5.83,5.83,0,0,1,2.6,1.67,7.58,7.58,0,0,1,1.43,2.42,10.56,10.56,0,0,1,.57,2.79c.08,1,.11,1.88.11,2.7a5,5,0,0,1-1.37,3.58,6.63,6.63,0,0,1-4.49,1.68q-7.74.31-15.65.38t-16,.08c-5.39,0-10.82,0-16.28,0s-10.92.06-16.35.23a2.09,2.09,0,0,0-1.69.82,3.74,3.74,0,0,0-.59,2.2c0,1.65,0,2.48,0,4.13,0,1.14,0,2.32,0,3.54a22.69,22.69,0,0,0,.32,3.36,9.61,9.61,0,0,0,.73,2.55,1.61,1.61,0,0,0,1.26,1.09,27.93,27.93,0,0,0,5.95-.33c2.69-.36,5.73-.8,9.11-1.3l10.6-1.6c3.68-.56,7.17-1,10.45-1.33s6.15-.57,8.63-.7a23.54,23.54,0,0,1,5.21.1,4.72,4.72,0,0,1,3.33,2.45,13.19,13.19,0,0,1,1.51,4.77,4,4,0,0,0,.07.8,3.94,3.94,0,0,1,.08.8,7.45,7.45,0,0,1-1.42,4.42q-1.39,1.92-5,2.47c-.63.15-1.9.34-3.81.59s-4.15.56-6.74.94-5.41.81-8.44,1.29-6,1-8.93,1.49-5.65,1-8.18,1.58-4.63.95-6.2,1.31a7.65,7.65,0,0,0-2.6.9,1.17,1.17,0,0,0-.45,1,7.3,7.3,0,0,0,1.75,4.2,19.35,19.35,0,0,0,4.1,3.72,37.84,37.84,0,0,0,5.63,3.16,50.08,50.08,0,0,0,6.51,2.43q3.38,1,6.63,1.63a43.2,43.2,0,0,0,6.05.79l3.42.18c1.48.09,3.11.13,4.89.14s3.61,0,5.49-.08a45.55,45.55,0,0,0,5.09-.43,15.21,15.21,0,0,0,3.74-1c1-.42,1.48-1,1.48-1.66a4.14,4.14,0,0,0-.58-2,4.64,4.64,0,0,1-.58-2.29,6.86,6.86,0,0,1,.89-3.32,9.88,9.88,0,0,1,2.27-2.75,9.44,9.44,0,0,1,3.18-1.73,8,8,0,0,1,3.59-.33A10.14,10.14,0,0,1,433,98a13.58,13.58,0,0,1,3.27,2.85,12.76,12.76,0,0,1,2.13,3.67,11.36,11.36,0,0,1,.75,4,11.77,11.77,0,0,1-3.85,8.88,31,31,0,0,1-10.08,6.15,66.79,66.79,0,0,1-14.05,3.79,93.27,93.27,0,0,1-15.72,1.25,87.58,87.58,0,0,1-16.9-1.6,45.15,45.15,0,0,1-13.66-5.06,35,35,0,0,1-10.35-9.19,47.13,47.13,0,0,1-7-13.87C346.92,97.23,346.24,96.4,345.49,96.36Z" transform="translate(-25.08 -7.19)" style="fill:#facc15"/></svg>