<svg xmlns="http://www.w3.org/2000/svg" viewBox="0 0 345.96 422"><title>logo3</title><path d="M401.86,141.11c-.29,15.67-13.38,29-27.89,28.51-18.06-.67-33.43-15.34-33.22-31.69.2-15,14.82-27.47,32.2-27.44C388.85,110.53,402.16,124.62,401.86,141.11Z" transform="translate(-65.68 -38.99)" style="fill:#facc15"/><path d="M119.57,91.62A37.34,37.34,0,0,0,110.38,93q-5.22,1.36-10.86,3.13T88.34,99.24a41.83,41.83,0,0,1-9.92,1.36A14,14,0,0,1,71.22,99,9.9,9.9,0,0,1,67.35,95a14.4,14.4,0,0,1-1.46-5.43q-.21-2.93-.21-5.64,0-7.94,4.7-13t13.47-8.46a122.57,122.57,0,0,1,21.2-5.84q12.42-2.4,28.09-5.33,24.65-4.59,45-7.1T217,40.55q18.5-1.14,36.24-1.35T290.63,39a23.58,23.58,0,0,1,9.19,1.46,10.41,10.41,0,0,1,6.79,9,57.32,57.32,0,0,1,.31,5.85,30.32,30.32,0,0,1-.94,7.2,21.83,21.83,0,0,1-3.13,7.11A17.37,17.37,0,0,1,297,74.91,17.68,17.68,0,0,1,288.12,77H271.41q-10,0-21.3.1t-22.35.42q-11.07.32-21.2.94t-18,1.78a64.56,64.56,0,0,0-12.43,2.82c-3.06,1.11-4.6,2.5-4.6,4.17s.63,4.46,1.88,8.36,2.79,8.11,4.6,12.63,3.65,9,5.53,13.37,3.45,8,4.7,11a10.71,10.71,0,0,0,3.76,4.8,10.86,10.86,0,0,0,5.64,1.26,151.17,151.17,0,0,0,17.55-1.05q9-1,18.06-2.4t18.17-2.4a157.32,157.32,0,0,1,18.07-1.05,17.09,17.09,0,0,1,8.25,1.78,15.05,15.05,0,0,1,5.12,4.38,16.32,16.32,0,0,1,2.61,5.54,21,21,0,0,1,.73,5q0,9.4-5.85,14.1t-15.87,7a147,147,0,0,1-23.29,3.13q-13.26.84-28.09,2.3l-5,.42a7.24,7.24,0,0,0-4.18,1.88,5,5,0,0,0-1.46,3.75,2.21,2.21,0,0,0,.21,1.05,2.47,2.47,0,0,1,.2,1q1.89,6.9,4.39,15.35t4.7,16.82q2.19,8.35,3.65,15.87a66.88,66.88,0,0,1,1.47,12.32q0,9.61-7.21,14.62t-20.36,5a20.83,20.83,0,0,1-9.3-2.2q-4.49-2.19-5.53-8-3.35-17.12-7.52-33.52t-8.77-32.69q-1.89-5.64-7.31-5.64-6.27,0-14.1-.41t-16-1.67a159.89,159.89,0,0,1-15.77-3.24,56.8,56.8,0,0,1-13.58-5.33,32.12,32.12,0,0,1-9.6-7.93,16.94,16.94,0,0,1-3.66-10.87,17.8,17.8,0,0,1,1.88-7.83,26.41,26.41,0,0,1,4.81-6.89,26.14,26.14,0,0,1,6.37-4.91,13.77,13.77,0,0,1,6.57-1.88,20.85,20.85,0,0,1,8.15,1.88q4.38,1.88,9.4,4.18a102.66,102.66,0,0,0,10.76,4.18,39.76,39.76,0,0,0,12.42,1.88c2.23,0,3.35-1.19,3.35-3.55a45.1,45.1,0,0,0-1.15-8.78q-1.15-5.43-3-11.38c-1.26-4-2.68-7.86-4.28-11.7a55.49,55.49,0,0,0-5.12-9.71,18.53,18.53,0,0,0-3.45-4C123.92,92.11,122.07,91.62,119.57,91.62Z" transform="translate(-65.68 -38.99)" style="fill:#facc15"/><path d="M318,461c-26.37.39-58.77-13.68-85.4-40.7-22.68-23-31.66-51.33-28.87-83.25,1-11.46,5.12-22.69,17.8-25.35,14-2.95,22.58,6,28,17.84,5.61,12.27,10,25.12,16.19,37.09,9.94,19.31,23.26,35.71,45.6,41.3,16.65,4.17,29.84-.57,37-12.45,8.12-13.54,2.81-25.93-6.25-35.69-10.38-11.19-22.52-20.9-34.7-30.2-11.84-9.05-25.56-15.74-36.93-25.28-31.09-26.09-30.36-69,.74-93.94,29.56-23.7,72.59-8.93,80.59,28.23,1.38,6.44-.07,14.6-3,20.61-4.94,10.1-14.48,10.59-22.4,2.48-3-3.1-5-8.08-8.55-9.58-5.48-2.31-15.41-5.09-17.21-2.79-3.93,5-6.09,13.56-4.81,19.8,1,5,7.64,9.69,12.81,12.78,11.15,6.66,23.43,11.46,34.39,18.38,14.6,9.21,29.7,18.29,42.24,29.95,25.86,24.06,32.52,53.46,21,81.2C393.22,442.58,364.28,461.42,318,461Z" transform="translate(-65.68 -38.99)" style="fill:#facc15"/></svg>