<svg xmlns="http://www.w3.org/2000/svg" viewBox="0 0 500 438.28"><title>logo</title><path d="M280.57,455.76l6.51-1.07.44,2.7L281,458.45Z" transform="translate(0 -30.81)" style="fill:#fff"/><path d="M271.14,451l1.25,17-6,.44a7.86,7.86,0,0,1-4.78-.84,4.08,4.08,0,0,1-1.86-3.36,3.86,3.86,0,0,1,.48-2.25,3.68,3.68,0,0,1,1.68-1.53,3.69,3.69,0,0,1-2.16-1.17,3.94,3.94,0,0,1-.93-2.38,4.51,4.51,0,0,1,1.29-3.83,7.07,7.07,0,0,1,4.37-1.61Zm-3,7.67-.34-4.59-3,.22a2.87,2.87,0,0,0-1.89.73,2,2,0,0,0-.58,1.68,2.13,2.13,0,0,0,2.59,2.19Zm.18,2.48-2.59.19c-1.77.16-2.6.93-2.5,2.31a2,2,0,0,0,.79,1.61,3.54,3.54,0,0,0,2.16.36l2.46-.19Z" transform="translate(0 -30.81)" style="fill:#fff"/><path d="M246.53,455.53l6.16,0,1.18-3.51h3.74l-6.4,17H248L241.62,452h3.73Zm5.2,2.87-4.26,0,2.13,6.4Z" transform="translate(0 -30.81)" style="fill:#fff"/><path d="M233.56,457.61l2.79.22.5-6.23,3.5.28-1.34,17-6.32-.5a7.2,7.2,0,0,1-4.55-1.71,4.65,4.65,0,0,1-1.33-3.93,5.24,5.24,0,0,1,1-2.84,5.09,5.09,0,0,1,2.43-1.67L227.09,451v-.17l3.76.3Zm2.57,3.06-2.83-.22a2.86,2.86,0,0,0-2.1.51,2.4,2.4,0,0,0-.87,1.79,2.61,2.61,0,0,0,.54,1.95,2.85,2.85,0,0,0,2,.85l2.81.22Z" transform="translate(0 -30.81)" style="fill:#fff"/><path d="M212.27,454.52l6.51,1.09-.46,2.7-6.51-1.1Z" transform="translate(0 -30.81)" style="fill:#fff"/><path d="M169.83,58.06l-6.05,2.63-1.09-2.5,6.05-2.64Z" transform="translate(0 -30.81)" style="fill:#fff"/><path d="M184.16,52.4l-2.65.89,2,5.92-3.34,1.11-5.38-16.19,6-2a7.18,7.18,0,0,1,4.85-.19A4.67,4.67,0,0,1,188.38,45,4.78,4.78,0,0,1,187,50.52L192.7,56l.05.16-3.58,1.19Zm-3.55-1.81,2.69-.9A2.9,2.9,0,0,0,185,48.4a2.39,2.39,0,0,0,.1-2,2.55,2.55,0,0,0-1.25-1.58,2.84,2.84,0,0,0-2.21,0l-2.68.9Z" transform="translate(0 -30.81)" style="fill:#fff"/><path d="M202.52,46,196,47.67l1.14,4.43,7.67-2,.71,2.74-11.08,2.85-4.25-16.53,11.06-2.84.71,2.76-7.65,2,1,3.94,6.54-1.68Z" transform="translate(0 -30.81)" style="fill:#fff"/><path d="M215.11,46.47a1.81,1.81,0,0,0-1-1.38,9.45,9.45,0,0,0-2.69-.64,17.14,17.14,0,0,1-3.06-.62q-3.15-1-3.63-3.62a4.1,4.1,0,0,1,.32-2.57A5,5,0,0,1,207,35.56a8.52,8.52,0,0,1,3.11-1.19,7.54,7.54,0,0,1,3.32.05,5.25,5.25,0,0,1,2.53,1.43,4.9,4.9,0,0,1,1.27,2.56l-3.45.64a2.34,2.34,0,0,0-1.06-1.66,3,3,0,0,0-2.16-.26,3.29,3.29,0,0,0-1.87.9,1.74,1.74,0,0,0-.44,1.55,1.63,1.63,0,0,0,1.08,1.21,9.55,9.55,0,0,0,2.62.59,10.68,10.68,0,0,1,4.7,1.4,4.47,4.47,0,0,1,2,3,4.11,4.11,0,0,1-1,3.72,7.39,7.39,0,0,1-4.21,2.07,8.81,8.81,0,0,1-3.66-.05,5.73,5.73,0,0,1-2.78-1.5,5,5,0,0,1-1.37-2.7L209,46.7q.51,2.77,3.83,2.16a3.24,3.24,0,0,0,1.83-.86A1.64,1.64,0,0,0,215.11,46.47Z" transform="translate(0 -30.81)" style="fill:#fff"/><path d="M232.64,34.36l-5.19.59,1.6,14.13-3.49.39L224,35.35l-5.13.58-.32-2.83,13.81-1.57Z" transform="translate(0 -30.81)" style="fill:#fff"/><path d="M244,44.53l-6.15.27-1,3.57-3.73.17,5.57-17.33,3.26-.15,7.15,16.76-3.73.16Zm-5.33-2.61,4.26-.2-2.43-6.28Z" transform="translate(0 -30.81)" style="fill:#fff"/><path d="M263.64,31.22l-.35,11.23a5.75,5.75,0,0,1-1.9,4.38,7.88,7.88,0,0,1-9.52-.26,5.63,5.63,0,0,1-1.66-4.4l.35-11.36,3.52.11-.35,11.26a3.21,3.21,0,0,0,.72,2.46,3.08,3.08,0,0,0,2.2.84c2,.06,3-.94,3.11-3l.35-11.35Z" transform="translate(0 -30.81)" style="fill:#fff"/><path d="M272.62,42.93l-2.79-.3-.67,6.21-3.49-.37,1.82-17,6.31.68A7.19,7.19,0,0,1,278.29,34a4.64,4.64,0,0,1,1.22,4,5.26,5.26,0,0,1-1.06,2.82A5.18,5.18,0,0,1,276,42.4l2.93,7.33,0,.16-3.75-.4Zm-2.49-3.13,2.83.31a3,3,0,0,0,2.11-.45,2.45,2.45,0,0,0,.92-1.77,2.62,2.62,0,0,0-.48-2,2.89,2.89,0,0,0-2-.92l-2.81-.3Z" transform="translate(0 -30.81)" style="fill:#fff"/><path d="M290.67,48.47l-6.06-1.13-1.79,3.24-3.68-.68,9.37-15.61,3.2.59,3.16,17.95-3.68-.69Zm-4.6-3.75,4.19.78-.94-6.67Z" transform="translate(0 -30.81)" style="fill:#fff"/><path d="M309.48,56.78l-3.39-.92-3.67-12.62-2.94,10.83-3.39-.92,4.46-16.47,3.4.92,3.67,12.66,2.94-10.86,3.39.92Z" transform="translate(0 -30.81)" style="fill:#fff"/><path d="M329,48.56,324,46.81,319.27,60.2,316,59l4.78-13.39-4.86-1.73.95-2.68,13.1,4.66Z" transform="translate(0 -30.81)" style="fill:#fff"/><path d="M338.79,61.92l-6-2.73,1.13-2.49,6,2.73Z" transform="translate(0 -30.81)" style="fill:#fff"/><path d="M292,405.22c-7.25.4-14.5.82-21.75.81-3.11,0-6.27-.94-6.52-6.14-.25-5.41,2.43-8.33,6.06-8.75,8.15-.95,16.33-1.6,24.5-2.16,3.71-.26,7.26,1.32,7.23,7.13,0,5.6-3.37,7.63-7.17,8.3-.78.13-1.56.36-2.34.54Z" transform="translate(0 -30.81)" style="fill:#facc15"/><path d="M62.45,389.29c-14.72-4-26.76-17.33-35.43-29-7.61-12.3-13.25-24.06-11.94-39,.42-4.78,2.14-9.25,7.45-9.54,5.88-.32,9.45,4.14,11.7,9.85,2.32,5.91,4.21,12.1,6.69,18.08,3.88,9.36,9.76,18.65,18.94,23.51,6.89,3.64,12.53,2.58,15.59-2.66,3.49-6,1.31-12.56-2.47-18A132.77,132.77,0,0,0,58.5,325.62c-5-5.07-10.7-9-15.45-14.08-12.13-11.69-12.8-32.05.58-43,13.13-12.22,31.49-.22,34,15a19.17,19.17,0,0,1-1.36,10.07c-2.14,4.82-6.18,4.67-9.49.48-1.27-1.6-2.08-4.06-3.58-4.88-2.31-1.28-6.5-2.89-7.27-1.86a13.16,13.16,0,0,0-2.1,9.15c.42,2.39,3.19,4.88,5.36,6.58,4.68,3.65,9.84,6.54,14.44,10.45,6.13,5.21,12.47,10.5,17.72,17.07,9,11.69,14.38,28.35,8.45,42.73C94.21,389.13,77.71,394.78,62.45,389.29Z" transform="translate(0 -30.81)" style="fill:#facc15"/><path d="M178.43,328.23a6.2,6.2,0,0,1-3,.65c-2.46-.13-4.14-2.13-5-6a21.42,21.42,0,0,1-.49-2.53,17.24,17.24,0,0,1-.1-1.8,7.24,7.24,0,0,1,4.13-6.83,104.51,104.51,0,0,1,16.5-6.29,57.22,57.22,0,0,1,16.93-2.24,28.63,28.63,0,0,1,7.87,1.26,18,18,0,0,1,7,4,20.52,20.52,0,0,1,5,7.47,30.49,30.49,0,0,1,1.9,11.64,29.68,29.68,0,0,1-1.52,9.44,42.23,42.23,0,0,1-4,8.56,55.33,55.33,0,0,1-5.67,7.66,74.71,74.71,0,0,1-6.52,6.55c-2.22,2-4.42,3.73-6.59,5.29s-4.22,2.9-5.9,4a4.36,4.36,0,0,0-2.26,3.44,4,4,0,0,0,2.38,3.5q8.26,4.35,16.93,8.09t17.59,8.14a6.9,6.9,0,0,1,4.19,6.46,10.83,10.83,0,0,1-.9,4.16,26.82,26.82,0,0,1-2,3.82q-2.26,4.38-5.61,4.29a9,9,0,0,1-2.87-.71q-5.06-2.74-10.83-5.78t-11.78-6.11q-6-3.07-11.79-6t-10.73-5.36a10.72,10.72,0,0,0-2.4-.81,1.27,1.27,0,0,0-1,.27,2,2,0,0,0-.35,1.43,3.87,3.87,0,0,0,.07.76,6,6,0,0,1,.07,1c.15,1,.33,2.37.55,4s.44,3.38.66,5.15.41,3.45.55,5,.21,2.9.21,3.91c0,3.76-1.62,6.22-4.78,7.34l-3.5,1a10.32,10.32,0,0,1-1.4.29,5.85,5.85,0,0,1-1.32,0c-2.83-.35-4.45-2.86-4.89-7.41-1.19-12.08-2.64-24.27-4.46-36.23-1.8-11.79-4-23.69-6.29-35.51a10.84,10.84,0,0,1-.25-1.74c0-.5,0-.94,0-1.34,0-3.48,1.52-5.74,4.45-6.8,1.08-.39,2-.7,2.66-.92l1.7-.55c.43-.13.77-.23,1-.28a1.86,1.86,0,0,1,.65-.06c2.77.16,4.54,2.3,5.34,6.4,1,5.25,2,10.36,2.93,15.3s1.71,9.85,2.47,14.63c.38,2.36,1.14,3.6,2.22,3.68a2.82,2.82,0,0,0,1.08-.16,10.46,10.46,0,0,0,1.47-.65q2.49-1.53,6-3.82t7.37-5.19q3.84-2.88,7.6-6.18a76.21,76.21,0,0,0,6.75-6.67,38.32,38.32,0,0,0,4.85-6.7,12.28,12.28,0,0,0,1.47-9.69,6,6,0,0,0-1.57-2.7A8,8,0,0,0,208,322a17.53,17.53,0,0,0-5-.75,31.1,31.1,0,0,0-6.12.48,49.6,49.6,0,0,0-6.37,1.54q-3.17,1-6.25,2.28C182.24,326.43,180.28,327.32,178.43,328.23Z" transform="translate(0 -30.81)" style="fill:#facc15"/><path d="M246.23,334.16a3.37,3.37,0,0,0-.64.08l-1,.18-1,.18a3.27,3.27,0,0,1-.74.08,4,4,0,0,1-3.32-2.14,10.12,10.12,0,0,1-1.41-5.66,9.43,9.43,0,0,1,1.16-4.5,9.23,9.23,0,0,1,3.58-3.6,4,4,0,0,0,1.18-1,2.7,2.7,0,0,0,.44-1.67q0-2.9-.1-6.19c-.06-2.2-.12-4.82-.29-7.73a4.86,4.86,0,0,0-.44-1.71q-.37-.82-.81-1.86a16.89,16.89,0,0,1-.77-2.31,12.2,12.2,0,0,1-.34-3.16,24,24,0,0,1,.38-3.93,11.42,11.42,0,0,1,1.55-4.15,9.78,9.78,0,0,1,3.3-3.25,10.46,10.46,0,0,1,5.55-1.31,6.69,6.69,0,0,1,2.36.36,7.67,7.67,0,0,1,1.64.86c.48.33.9.61,1.28.85a2.22,2.22,0,0,0,1.18.36,31.71,31.71,0,0,0,4.31-.55q3.22-.56,7.77-1.57t10-2.31q5.48-1.31,11.12-2.83t11-3.09q5.37-1.56,9.73-3a7.56,7.56,0,0,1,2.35-.47,3,3,0,0,1,2.25.82,5,5,0,0,1,1.26,2.06,11.45,11.45,0,0,1,.52,2.78c.08,1,.12,2,.12,2.87a8.32,8.32,0,0,1-1.15,4.31,8,8,0,0,1-3.84,3.21q-6.64,2.7-13.4,4.73t-13.63,3.71q-6.86,1.67-13.8,3l-13.81,2.62a2.05,2.05,0,0,0-1.42.95,3.92,3.92,0,0,0-.47,2v3.7c0,1,0,2.08.07,3.16a23.16,23.16,0,0,0,.31,3,8.9,8.9,0,0,0,.64,2.21c.28.57.64.86,1.09.85a21.41,21.41,0,0,0,5-.93c2.28-.62,4.84-1.39,7.7-2.29s5.84-1.91,9-3,6.07-2.11,8.85-3,5.23-1.71,7.34-2.35a19.79,19.79,0,0,1,4.45-1,3,3,0,0,1,2.87,1.76,12.68,12.68,0,0,1,1.34,4.55,4.64,4.64,0,0,0,.07.79,4.81,4.81,0,0,1,.08.8,10,10,0,0,1-1.16,4.8,7.55,7.55,0,0,1-4.2,3.39c-.54.26-1.61.66-3.23,1.22l-5.73,2c-2.21.74-4.59,1.53-7.16,2.37s-5.08,1.65-7.56,2.45-4.78,1.55-6.92,2.28-3.92,1.28-5.24,1.73a7.12,7.12,0,0,0-2.2,1,1.23,1.23,0,0,0-.37.9,6.53,6.53,0,0,0,1.53,3.69,15.66,15.66,0,0,0,3.53,3.11,28.24,28.24,0,0,0,4.81,2.54,35.69,35.69,0,0,0,5.55,1.82,54.47,54.47,0,0,0,5.66,1.07,30.14,30.14,0,0,0,5.15.29l2.91-.09c1.26,0,2.65-.14,4.16-.29s3.07-.35,4.67-.59a33.28,33.28,0,0,0,4.32-.95,12,12,0,0,0,3.17-1.4,2.23,2.23,0,0,0,1.24-1.88,4.61,4.61,0,0,0-.51-2,5,5,0,0,1-.52-2.29,8.93,8.93,0,0,1,.72-3.54,12.57,12.57,0,0,1,1.91-3.2,10.39,10.39,0,0,1,2.68-2.33,6.45,6.45,0,0,1,6.65-.13,9.49,9.49,0,0,1,2.82,2.51,11.84,11.84,0,0,1,1.85,3.65,14.33,14.33,0,0,1,.67,4.27,16.68,16.68,0,0,1-3.2,10.24,28,28,0,0,1-8.51,7.56,45.8,45.8,0,0,1-11.89,4.84,62.9,62.9,0,0,1-13.35,2,63.77,63.77,0,0,1-14.38-.95A36.46,36.46,0,0,1,263,356.13a30,30,0,0,1-8.89-7.93,41.32,41.32,0,0,1-6.1-12C247.45,334.85,246.87,334.16,246.23,334.16Z" transform="translate(0 -30.81)" style="fill:#facc15"/><path d="M337.19,375.87a4.47,4.47,0,0,0-.76.18c-.35.1-.72.21-1.12.31l-1.16.32a4.89,4.89,0,0,1-.88.19,4.28,4.28,0,0,1-3.94-2.07,10.62,10.62,0,0,1-1.73-6.35,11.4,11.4,0,0,1,1.32-5.31,12.11,12.11,0,0,1,4.21-4.49,5.32,5.32,0,0,0,1.39-1.31,3.2,3.2,0,0,0,.5-1.95q0-3.31-.17-7.08c-.1-2.5-.2-5.5-.43-8.81a5.33,5.33,0,0,0-.53-1.93c-.3-.6-.63-1.29-1-2.06a19.36,19.36,0,0,1-.94-2.59,14.17,14.17,0,0,1-.43-3.6,27.2,27.2,0,0,1,.41-4.53,13.63,13.63,0,0,1,1.8-4.86,12.18,12.18,0,0,1,3.87-3.93,13.33,13.33,0,0,1,6.57-1.84,8.12,8.12,0,0,1,2.79.26,8.84,8.84,0,0,1,2,.86c.56.34,1.07.64,1.52.88a2.6,2.6,0,0,0,1.4.32,40.53,40.53,0,0,0,5.09-.93c2.54-.56,5.6-1.34,9.17-2.31s7.51-2.08,11.82-3.31,8.68-2.55,13.11-3.95,8.76-2.8,13-4.2,8-2.73,11.46-4a10.37,10.37,0,0,1,2.77-.68,3.71,3.71,0,0,1,2.66.67,4.87,4.87,0,0,1,1.48,2.05,10.12,10.12,0,0,1,.62,2.85c.09,1.07.14,2.06.15,3a8.46,8.46,0,0,1-1.34,4.61,10.51,10.51,0,0,1-4.52,3.77q-7.8,3.54-15.74,6.44t-16,5.39q-8.09,2.5-16.26,4.65T353,334.73a2.71,2.71,0,0,0-1.67,1.2,4.46,4.46,0,0,0-.53,2.34c0,1.68,0,2.51,0,4.18,0,1.16.05,2.35.12,3.56a22.74,22.74,0,0,0,.39,3.33,8.46,8.46,0,0,0,.78,2.43,1.29,1.29,0,0,0,1.28.84,28,28,0,0,0,5.93-1.61q4-1.42,9.06-3.42t10.55-4.37q5.5-2.35,10.41-4.36t8.62-3.42a26.5,26.5,0,0,1,5.22-1.61,3.26,3.26,0,0,1,3.39,1.51,11.56,11.56,0,0,1,1.59,4.67,3.61,3.61,0,0,0,.09.84,4.91,4.91,0,0,1,.09.84A10.71,10.71,0,0,1,407,347a10.31,10.31,0,0,1-4.91,4.23c-.63.35-1.89.94-3.79,1.77l-6.72,2.94q-3.87,1.68-8.39,3.6l-8.88,3.74c-2.91,1.22-5.62,2.37-8.14,3.47s-4.6,1.95-6.16,2.63a10,10,0,0,0-2.58,1.43,1.5,1.5,0,0,0-.43,1.07,6.27,6.27,0,0,0,1.84,3.92,15.28,15.28,0,0,0,4.18,3,29.17,29.17,0,0,0,5.69,2.1,39.65,39.65,0,0,0,6.55,1.15,59.94,59.94,0,0,0,6.65.25,38.67,38.67,0,0,0,6.05-.56l3.41-.61c1.48-.27,3.1-.62,4.87-1.05s3.59-.92,5.46-1.48a44,44,0,0,0,5.06-1.81,18.47,18.47,0,0,0,3.7-2.07,3,3,0,0,0,1.44-2.23,4.07,4.07,0,0,0-.62-2,4.53,4.53,0,0,1-.61-2.34,9.43,9.43,0,0,1,.83-3.88,15.5,15.5,0,0,1,2.21-3.71,14.48,14.48,0,0,1,3.14-2.92,9.34,9.34,0,0,1,3.58-1.55,7.92,7.92,0,0,1,4.19.27,8.86,8.86,0,0,1,3.29,2.11,9.65,9.65,0,0,1,2.16,3.43,12.51,12.51,0,0,1,.79,4.29,18.75,18.75,0,0,1-3.72,11.27,42.08,42.08,0,0,1-9.88,9.71,68.8,68.8,0,0,1-13.84,7.63,84.38,84.38,0,0,1-15.6,4.82,74.67,74.67,0,0,1-16.88,1.63,38.4,38.4,0,0,1-13.77-2.76,28.68,28.68,0,0,1-10.56-7.58A40.14,40.14,0,0,1,339.29,378Q338.31,375.75,337.19,375.87Z" transform="translate(0 -30.81)" style="fill:#facc15"/><path d="M116.3,307.39a18.82,18.82,0,0,0-2.85.2c-1.4.16-3,.36-4.9.6s-3.82.51-5.87.83-4,.58-5.78.8-3.37.38-4.7.52a18,18,0,0,1-2.65.14q-6.22-.6-6.15-8.26a26.1,26.1,0,0,1,.37-4.07,12.31,12.31,0,0,1,1.2-3.63,8.44,8.44,0,0,1,2.26-2.76,7.22,7.22,0,0,1,3.55-1.44q10.89-1.33,21.72-3.13t21.85-4c1.61-.34,3.08-.67,4.39-1s2.78-.79,4.39-1.35,3.65-1.15,5.71-1.7,4.12-1,6.21-1.47,4.11-.8,6.07-1.08a32.78,32.78,0,0,1,5.37-.39,5,5,0,0,1,4.5,2.57,13.53,13.53,0,0,1,1.49,7,35.13,35.13,0,0,1-.32,4.44,13.8,13.8,0,0,1-1,3.81,7.25,7.25,0,0,1-2.08,2.73,6.53,6.53,0,0,1-3.37,1.22c-3.45.4-7.36,1.17-11.41,1.92a86.6,86.6,0,0,0-10.57,2.56,5,5,0,0,0-2.82,2.17,9.85,9.85,0,0,0-1.26,3.9c-.19,1.48-.32,3-.37,4.53s-.07,3-.08,4.44q-.06,5,.23,10t.51,10c.54,11.38,1.24,22.78,2.25,34.07s2.26,22.95,3.48,34.42a4.45,4.45,0,0,1,.18,1.22v1.2c0,4.37-2,7.17-5.9,8.32l-4.23.91a7.76,7.76,0,0,1-3.28.1,5.84,5.84,0,0,1-3.91-2.68,13.58,13.58,0,0,1-1.91-6c-1.52-13.53-3-27.16-4.17-40.62-1.12-13.27-1.6-26.81-2.11-40.1-.09-2.15-.17-4.53-.21-7.08s0-5.17,0-7.87C120.1,309.55,118.84,307.57,116.3,307.39Z" transform="translate(0 -30.81)" style="fill:#facc15"/><path d="M429.53,284.34a19.66,19.66,0,0,0-2.83.55q-2.08.5-4.87,1.2T416,287.68c-2,.6-3.95,1.13-5.75,1.61l-4.68,1.22a16.77,16.77,0,0,1-2.65.54q-6.23.38-6.31-7.54a27.34,27.34,0,0,1,.28-4.25,14,14,0,0,1,1.12-3.87,9.53,9.53,0,0,1,2.21-3.05,7.59,7.59,0,0,1,3.51-1.77q10.88-2.29,21.64-4.69l21.73-4.82c1.61-.37,3.07-.71,4.37-1s2.76-.79,4.36-1.32,3.62-1.09,5.67-1.6,4.1-1,6.18-1.36,4.09-.72,6.05-1a40.83,40.83,0,0,1,5.35-.39,5.48,5.48,0,0,1,4.52,1.92,8.33,8.33,0,0,1,1.53,5.35,19.75,19.75,0,0,1-.28,3.4,9,9,0,0,1-1,3,6.58,6.58,0,0,1-2,2.24,8.15,8.15,0,0,1-3.34,1.2c-3.45.57-7.29,1.49-11.31,2.44A89.66,89.66,0,0,0,456.68,277a5.49,5.49,0,0,0-2.77,2.12,8.25,8.25,0,0,0-1.19,3.47,34.29,34.29,0,0,0-.29,3.93c0,1.32,0,2.59,0,3.81q0,4.28.38,8.5c.23,2.82.47,5.65.66,8.44.62,9.41,1.49,19,2.71,28.38s2.49,18.49,3.88,27.7a2.41,2.41,0,0,1,.19,1v1q0,5.49-5.61,9.44l-4.1,2.6a11.92,11.92,0,0,1-3.2,1.53,3.91,3.91,0,0,1-3.86-.64,7.42,7.42,0,0,1-2-4.53c-1.75-11.62-3.48-23.33-4.81-34.89-1.36-11.85-2.07-24-2.81-35.88-.12-1.94-.26-4.11-.34-6.43s-.13-4.72-.15-7.19C433.35,285.85,432.07,284.19,429.53,284.34Z" transform="translate(0 -30.81)" style="fill:#facc15"/><path d="M500,231.64c-.07,7.38-6.56,14.89-14,14.76-6.33-.11-12-7.61-12.05-14.66s7.27-13.68,14.93-13.5C495.34,218.4,500.07,224.11,500,231.64Z" transform="translate(0 -30.81)" style="fill:#facc15"/><path d="M26,232.76c-.12,6.66-5.68,12.34-11.85,12.11C6.44,244.58-.09,238.35,0,231.41c.08-6.37,6.29-11.66,13.67-11.65C20.43,219.78,26.08,225.76,26,232.76Z" transform="translate(0 -30.81)" style="fill:#facc15"/><path d="M62.1,156.9a16.66,16.66,0,0,0-3.83,1.58q-2.18,1.16-4.51,2.55c-1.57.92-3.11,1.78-4.64,2.56A20.26,20.26,0,0,1,45,165.24a5.33,5.33,0,0,1-3,.11,2.84,2.84,0,0,1-1.6-1.31,5,5,0,0,1-.61-2.14c0-.81-.08-1.6-.08-2.37a10.34,10.34,0,0,1,1.93-6.11,24.34,24.34,0,0,1,5.56-5.4A67,67,0,0,1,56,142.68q5.14-2.69,11.65-6,10.25-5.2,18.77-8.77t16.3-6.09q7.78-2.52,15.31-4.3t15.86-3.42a7.54,7.54,0,0,1,3.92,0,4.05,4.05,0,0,1,2.12,1.67,6.49,6.49,0,0,1,.83,2.72c.1,1,.16,2.11.17,3.18a22.85,22.85,0,0,1-.36,4,15.69,15.69,0,0,1-1.29,4.1,10.34,10.34,0,0,1-2.46,3.3,7.17,7.17,0,0,1-3.76,1.74l-7.1,1.2c-2.83.49-5.85,1-9,1.68s-6.34,1.31-9.45,2-6.1,1.51-8.94,2.32-5.36,1.67-7.55,2.53a30.08,30.08,0,0,0-5.21,2.56c-1.28.84-1.92,1.66-1.91,2.48a15.86,15.86,0,0,0,.83,3.92c.54,1.79,1.21,3.73,2,5.81s1.59,4.13,2.4,6.17,1.48,3.77,2,5.11a4.26,4.26,0,0,0,1.61,2.15,3.71,3.71,0,0,0,2.38.27,58.62,58.62,0,0,0,7.41-1.59q3.8-1.06,7.63-2.29t7.68-2.27a54,54,0,0,1,7.66-1.52A5.59,5.59,0,0,1,129,166a6.05,6.05,0,0,1,2.2,2.12,8.81,8.81,0,0,1,1.15,2.86,14,14,0,0,1,.34,2.68c0,3.39-.76,6-2.4,7.84a16.56,16.56,0,0,1-6.69,4.35,53.59,53.59,0,0,1-9.86,2.56q-5.62,1-11.89,2.33l-2.12.42A3.26,3.26,0,0,0,98,192.27a3.08,3.08,0,0,0-.59,1.95,1.28,1.28,0,0,0,.09.52,1.31,1.31,0,0,1,.09.52c.56,2.27,1.21,4.8,1.95,7.61s1.43,5.61,2.08,8.41,1.2,5.48,1.64,8a40.23,40.23,0,0,1,.69,6.28c0,3.28-1,5.79-3,7.5s-4.9,2.54-8.62,2.54a8,8,0,0,1-4-1.08A5.16,5.16,0,0,1,86,230.61q-1.5-8.38-3.34-16.26t-3.86-15.53c-.55-1.76-1.58-2.55-3.11-2.38-1.76.19-3.75.34-6,.46a67.67,67.67,0,0,1-13.37-.64,21.81,21.81,0,0,1-5.72-1.6,11.57,11.57,0,0,1-4-2.88A6.53,6.53,0,0,1,45,187.31a8.92,8.92,0,0,1,.78-3.53,15.59,15.59,0,0,1,4.65-6.08,6.77,6.77,0,0,1,2.74-1.39,7.41,7.41,0,0,1,3.41.17c1.23.33,2.54.71,3.94,1.15a39.32,39.32,0,0,0,4.52,1.11,15,15,0,0,0,5.23,0c.93-.16,1.4-.79,1.39-1.91a21.89,21.89,0,0,0-.52-4.06q-.5-2.47-1.31-5.12a53.92,53.92,0,0,0-1.84-5.1,19.61,19.61,0,0,0-2.17-4.05A5.74,5.74,0,0,0,64.41,157,2.94,2.94,0,0,0,62.1,156.9Z" transform="translate(0 -30.81)" style="fill:#facc15"/><path d="M139.57,202.65c-1,0-1.77-.55-2.29-1.81a15.55,15.55,0,0,1-.81-5.41l0-1.31c0-.49.08-1.49.15-2.91.25-5.32,2.18-8.82,6.2-10.06l2-.39a5.67,5.67,0,0,0,3.18-1.92,9.12,9.12,0,0,0,1.65-3.9q1.44-6.72,2.89-13.61t3.06-13.74q.85-3.83,1.75-8.21c.6-2.92,1.25-5.84,2-8.75s1.55-5.8,2.51-8.67a59.6,59.6,0,0,1,3.28-8,19.07,19.07,0,0,1,2.2-3.26,23,23,0,0,1,3.25-3.22,21,21,0,0,1,3.92-2.54,12.77,12.77,0,0,1,4.17-1.29,7.08,7.08,0,0,1,5.31,1.67,44.79,44.79,0,0,1,7,7.14,112.26,112.26,0,0,1,7.71,11.14c2.84,4.58,6.14,10.16,9.88,16.79s8.23,14.68,13.45,24.23a9.29,9.29,0,0,0,2.47,2.71,5.13,5.13,0,0,0,3.09.87l5.1-.09a6,6,0,0,1,4.87,2,8.34,8.34,0,0,1,1.76,5.61c0,.5,0,1.07-.05,1.73a9.06,9.06,0,0,1-.31,2l-1.68,6.93q-.18,1-.27,1.74a12.12,12.12,0,0,0-.08,1.48,12.62,12.62,0,0,0,1.25,5.3c3.83,7.19,5.74,10.8,9.55,18a14.61,14.61,0,0,1,1.6,6.31,10.3,10.3,0,0,1-3.64,7.79l-3.37,3.34a13.34,13.34,0,0,1-2.35,1.73,4.61,4.61,0,0,1-2.26.62,4.26,4.26,0,0,1-3-1.3,14.44,14.44,0,0,1-2.62-3.51q-4.29-8.39-8.63-16.48t-8.83-16c-1.38-2.59-3.26-3.92-5.45-3.81-7.06.37-14.42,1.34-21.51,2.26s-14.21,2-21.29,3.27c-2.54.43-4.13,2.3-4.75,5.62-1.53,7.81-2.29,11.71-3.81,19.45-1,5.17-3.35,7.75-7,7.77l-1.42,0-2.76-.44a6.36,6.36,0,0,1-4.59-2.37,8.68,8.68,0,0,1-1.62-5.34,13.21,13.21,0,0,1,.08-1.49c.05-.53.13-1.11.24-1.72.28-1.53.58-3.1.88-4.71s.63-3.19,1-4.74c.11-.61.2-1.17.25-1.67a11.89,11.89,0,0,0,.07-1.43c0-2.37-.75-3.52-2.17-3.45Zm41.8-65.08c-.61-.67-1.15-1.22-1.63-1.66a2,2,0,0,0-1.53-.58c-1.49.14-2.52,1.64-3.09,4.48Q173.4,147,171.8,154t-3.22,14.21a4.14,4.14,0,0,0-.17,1.08v1.06c0,2.93,1.2,4.31,3.52,4.16l.89-.05q5.34-1.29,10.69-2.12c3.56-.56,7.26-.94,10.7-1.45a4.78,4.78,0,0,0,2.81-1.4,3.88,3.88,0,0,0,1-2.78,8.72,8.72,0,0,0-1.1-3.72q-3.8-6.61-7.65-12.95T181.37,137.57Z" transform="translate(0 -30.81)" style="fill:#facc15"/><path d="M329.78,112.58a16.08,16.08,0,0,1-2.36,8.4,40.13,40.13,0,0,1-5.8,7.27,95.38,95.38,0,0,1-7.53,6.76,90.58,90.58,0,0,0-7.53,6.81,40.31,40.31,0,0,0-5.78,7.3,15.45,15.45,0,0,0-2.33,8.16q0,3.66,3.71,7.24a48.64,48.64,0,0,0,10.76,7.32q7,3.74,17,7.83c6.62,2.72,14.31,5.54,22.34,8.72,4.08,1.62,6.17,4.58,6.13,8.55a12,12,0,0,1-.89,4.42,12.79,12.79,0,0,1-2.31,3.74,11.65,11.65,0,0,1-3.27,2.57,7.26,7.26,0,0,1-3.69.91,35.19,35.19,0,0,1-10.07-2.11,124.4,124.4,0,0,1-11.65-4.78q-6-2.83-12.05-6.22t-11.32-6.24q-5.28-2.85-9.33-4.79a16.9,16.9,0,0,0-6.1-2c-1.07,0-2.1.62-3.09,1.94a20.55,20.55,0,0,0-2.7,5.54,53.93,53.93,0,0,0-2,8.38c-.55,3.24-.93,6.79-1.2,10.63-.29,4.33-1.43,7.55-3.36,9.64a10.31,10.31,0,0,1-8,3.11c-3.5,0-5.49-2.31-6-6.81-.83-6.89-2-14-3.22-21.15s-2.66-14.35-4.18-21.53-3.16-14.27-4.92-21.27-3.61-13.72-5.53-20.13a26.13,26.13,0,0,1-1-3.89,21,21,0,0,1-.32-3.64,6.7,6.7,0,0,1,.72-3,8.61,8.61,0,0,1,2-2.55,9.23,9.23,0,0,1,2.92-1.75,10,10,0,0,1,3.47-.62,8,8,0,0,1,5.85,2.14,26.19,26.19,0,0,1,4.4,6.36,28,28,0,0,1,2.06,5.29q1,3.28,1.88,7c.59,2.48,1.19,5,1.78,7.5s1.17,4.8,1.73,6.83a39.57,39.57,0,0,0,1.69,5q.85,1.94,1.65,2a1.4,1.4,0,0,0,1.22-.83,26.39,26.39,0,0,0,1.21-2.56A187.14,187.14,0,0,1,285,130,111.13,111.13,0,0,1,296.46,112a48.32,48.32,0,0,1,11.81-11q5.93-3.65,11.31-3a9,9,0,0,1,4,1.52,12.32,12.32,0,0,1,3.25,3.23,16,16,0,0,1,2.16,4.52A17.19,17.19,0,0,1,329.78,112.58Z" transform="translate(0 -30.81)" style="fill:#facc15"/><path d="M356.14,197a5.5,5.5,0,0,0-.85.07c-.38.06-.8.11-1.24.16l-1.29.16a5.54,5.54,0,0,1-1,.07c-1.66-.09-3.1-1.07-4.32-3a13.07,13.07,0,0,1-1.8-7.38,11.54,11.54,0,0,1,1.58-5.72,10.75,10.75,0,0,1,4.76-4.28,4.88,4.88,0,0,0,1.57-1.2,3.22,3.22,0,0,0,.6-2.08c0-2.45,0-5.09-.05-7.9s-.1-6.17-.29-9.9a6.48,6.48,0,0,0-.56-2.25c-.32-.73-.67-1.56-1-2.49a23.06,23.06,0,0,1-1-3.07,16.28,16.28,0,0,1-.41-4.11,29.17,29.17,0,0,1,.55-5,12.79,12.79,0,0,1,2.1-5,10.3,10.3,0,0,1,4.41-3.49,13,13,0,0,1,7.35-.47,10,10,0,0,1,3.11,1,13.32,13.32,0,0,1,2.16,1.45c.61.52,1.17,1,1.67,1.36a3.7,3.7,0,0,0,1.55.72,51.51,51.51,0,0,0,5.68.35c2.84.08,6.25.1,10.23.12s8.37.05,13.16.17,9.64.24,14.55.41,9.69.38,14.33.64,8.84.54,12.59.77a11.81,11.81,0,0,1,3,.54,6.38,6.38,0,0,1,2.88,1.86,8.14,8.14,0,0,1,1.59,2.69,11.94,11.94,0,0,1,.64,3.1c.08,1.09.12,2.09.12,3a5.6,5.6,0,0,1-1.52,4c-1,1.07-2.68,1.69-5,1.86-5.73.23-11.53.38-17.4.42s-11.79.08-17.78.09-12,0-18.09,0-12.14.07-18.18.26a2.26,2.26,0,0,0-1.87.91,4.09,4.09,0,0,0-.65,2.44L372,162.9c0,1.27,0,2.58,0,3.93a27.83,27.83,0,0,0,.35,3.74,11.38,11.38,0,0,0,.82,2.84,1.8,1.8,0,0,0,1.4,1.21,31.48,31.48,0,0,0,6.62-.37c3-.39,6.36-.88,10.11-1.44L403.12,171q6.15-.93,11.61-1.49c3.65-.37,6.85-.62,9.6-.77a26.06,26.06,0,0,1,5.79.11,5.28,5.28,0,0,1,3.71,2.73,15,15,0,0,1,1.67,5.3,4.15,4.15,0,0,0,.08.89,4,4,0,0,1,.08.88,8.16,8.16,0,0,1-1.57,4.92c-1,1.42-2.87,2.33-5.51,2.75-.71.16-2.12.37-4.23.65s-4.62.62-7.51,1.05-6,.89-9.37,1.43-6.67,1.08-9.92,1.65-6.29,1.16-9.1,1.76-5.14,1.06-6.89,1.46a8.83,8.83,0,0,0-2.89,1,1.32,1.32,0,0,0-.5,1.07,8.08,8.08,0,0,0,1.94,4.67,21.39,21.39,0,0,0,4.56,4.13,41.5,41.5,0,0,0,6.25,3.52,55.47,55.47,0,0,0,7.24,2.7c2.5.73,5,1.34,7.38,1.81a47.48,47.48,0,0,0,6.71.88l3.81.2c1.65.1,3.46.15,5.44.16s4,0,6.1-.09a50.16,50.16,0,0,0,5.66-.48,16.69,16.69,0,0,0,4.16-1.07c1.09-.46,1.63-1.08,1.64-1.84a4.68,4.68,0,0,0-.65-2.25,5.19,5.19,0,0,1-.64-2.55,7.42,7.42,0,0,1,1-3.68,10.53,10.53,0,0,1,6.05-5,9.07,9.07,0,0,1,4-.36,11.39,11.39,0,0,1,4.64,1.66,15.21,15.21,0,0,1,3.63,3.18,13.92,13.92,0,0,1,2.37,4.08,12.44,12.44,0,0,1,.83,4.43A13.07,13.07,0,0,1,456,220.4a34.6,34.6,0,0,1-11.2,6.84,74.78,74.78,0,0,1-15.61,4.21,104.68,104.68,0,0,1-17.48,1.39,95.82,95.82,0,0,1-18.78-1.79,49.88,49.88,0,0,1-15.19-5.62,38.74,38.74,0,0,1-11.5-10.21,52.19,52.19,0,0,1-7.82-15.41C357.73,198,357,197.09,356.14,197Z" transform="translate(0 -30.81)" style="fill:#facc15"/></svg>