<svg xmlns="http://www.w3.org/2000/svg" width="44" height="32" viewBox="0 0 44 32">
    <g fill="none" fill-rule="evenodd">
        <path fill="#DDD" d="M44 28c0 2.2-1.8 4-4 4H4c-2.2 0-4-1.8-4-4V4c0-2.2 1.8-4 4-4h36c2.2 0 4 1.8 4 4v24z"/>
        <path fill="#404040" d="M0 6h44v8H0z"/>
        <path fill="#666" d="M33 20h6v3h-6z"/>
        <path fill="#FFF" d="M2 18h30v6H2z"/>
        <path fill="#CD1F20" d="M35 18c3.3 0 6 1.6 6 3.5 0 2-2.7 3.5-6 3.5s-6-1.6-6-3.5c0-2 2.7-3.5 6-3.5zm0-1c-4 0-7 2-7 4.5s3 4.5 7 4.5 7-2 7-4.5-3-4.5-7-4.5z"/>
    </g>
</svg>